<svg xmlns="http://www.w3.org/2000/svg" viewBox="0 0 512 512">
  <defs>
    <radialGradient id="bg" cx="50%" cy="42%" r="70%"><stop offset="0" stop-color="#0d5b45"/><stop offset=".55" stop-color="#06251f"/><stop offset="1" stop-color="#010706"/></radialGradient>
    <linearGradient id="ring" x1="0" y1="0" x2="1" y2="1"><stop stop-color="#eaffff"/><stop offset=".35" stop-color="#38ffb0"/><stop offset=".7" stop-color="#00b978"/><stop offset="1" stop-color="#dffff7"/></linearGradient>
    <linearGradient id="v" x1="0" y1="0" x2="1" y2="1"><stop stop-color="#eaffff"/><stop offset=".35" stop-color="#65ffc3"/><stop offset=".75" stop-color="#00c985"/><stop offset="1" stop-color="#efffff"/></linearGradient>
    <filter id="glow"><feGaussianBlur stdDeviation="7" result="b"/><feMerge><feMergeNode in="b"/><feMergeNode in="SourceGraphic"/></feMerge></filter>
    <filter id="blur"><feGaussianBlur stdDeviation="18"/></filter>
  </defs>
  <circle cx="256" cy="256" r="246" fill="url(#bg)"/>
  <g opacity=".32" filter="url(#blur)" fill="#1cff9a">
    <rect x="45" y="80" width="70" height="120"/><rect x="370" y="65" width="90" height="150"/><rect x="70" y="330" width="100" height="90"/><rect x="345" y="335" width="105" height="100"/>
  </g>
  <circle cx="256" cy="256" r="236" fill="none" stroke="url(#ring)" stroke-width="12" filter="url(#glow)"/>
  <circle cx="256" cy="256" r="220" fill="none" stroke="#baffed" stroke-opacity=".3" stroke-width="2"/>
  <path d="M151 142 L218 142 L256 225 L294 142 L361 142 L287 361 L256 390 L225 361 Z" fill="#031a15" stroke="url(#v)" stroke-width="8" filter="url(#glow)"/>
  <path d="M176 161 L217 161 L256 255 L295 161 L336 161 L274 341 L256 360 L238 341 Z" fill="url(#v)" opacity=".78"/>
  <text x="256" y="425" text-anchor="middle" font-family="Arial,Helvetica,sans-serif" font-size="48" font-weight="800" letter-spacing="3" fill="#f2ffff">VOID<tspan fill="#27f5a4">HOST</tspan></text>
  <text x="256" y="454" text-anchor="middle" font-family="Arial,Helvetica,sans-serif" font-size="12" letter-spacing="6" fill="#c8fff0">PLAY BEYOND LIMITS</text>
</svg>
